# xmcd
#
# Track frame offsets: 
#        150
#        9245
#        18764
#        29620
#        41262
#        53982
#        64225
#        75316
#        85965
#        97282
#        111747
#        126842
#        138753
#        153206
#        163087
#        178844
#        190460
#        201122
#        211496
#        222258
#        234681
#        244457
#        261443
#        276226
#        288382
#
# Disc length: 4018 seconds
#
# Revision: 0
# Processed by: cddbd v1.5.2PL0 Copyright (c) Steve Scherf et al.
# Submitted via: ExactAudioCopy v1.1
#
DISCID=780fb019
DTITLE=Frankie Laine - Greatest Cowboy Hits
DYEAR=2015
DGENRE=Vocal
TTITLE0=Rawhide
TTITLE1=Gunfight At The O.K. Corral
TTITLE2=The 3:10 To Yuma
TTITLE3=Wanted Man
TTITLE4=Cool Water
TTITLE5=The Hanging Tree
TTITLE6=North To Alaska
TTITLE7=Sixteen Tons
TTITLE8=Moonlight Gambler
TTITLE9=On The Trail
TTITLE10=Rocks And Gravel
TTITLE11=Rolling Stone
TTITLE12=Jealosy (Jalousie)
TTITLE13=Horses And Women
TTITLE14=That Lucky Old Sun
TTITLE15=Jelly Coal Man
TTITLE16=Old Blue
TTITLE17=On A Monday
TTITLE18=Lucy D
TTITLE19=And Doesn't She Roll
TTITLE20=I Believe
TTITLE21=New Orleans
TTITLE22=That's My Desire
TTITLE23=El Diablo
TTITLE24=Stack Of Blue
EXTD=
EXTT0=
EXTT1=
EXTT2=
EXTT3=
EXTT4=
EXTT5=
EXTT6=
EXTT7=
EXTT8=
EXTT9=
EXTT10=
EXTT11=
EXTT12=
EXTT13=
EXTT14=
EXTT15=
EXTT16=
EXTT17=
EXTT18=
EXTT19=
EXTT20=
EXTT21=
EXTT22=
EXTT23=
EXTT24=
PLAYORDER=
